# xmcd
#
# Track frame offsets:
#	150
#	14247
#	27405
#	39562
#	53222
#	67375
#	81252
#	94840
#	108332
#	121470
#	134557
#	146582
#	160140
#	173392
#	187195
#	199995
#	213825
#	225572
#	238967
#	252507
#	265777
#	280325
#	295755
#	309320
#
# Disc length: 4279 seconds
#
# Revision: 0
# Processed by: cddbd v1.5.1PL2 Copyright (c) Steve Scherf et al.
# Submitted via: EasyCDDAExtractor 9.0.0.1
#
DISCID=7210b518
DTITLE=Buddy Williams - Buddy Williams Regal Zonophone Collection
DYEAR=1900
DGENRE=Country
TTITLE0=Wonder Valley
TTITLE1=Blazin' The Trail
TTITLE2=Where The Roly Polly Grass Rolls O'er The Plains
TTITLE3=Music In My Ponys Feet
TTITLE4=Stockmen In Uniform
TTITLE5=Sunny Australian Sweetheart
TTITLE6=Riding Home At Sundown
TTITLE7=Bushland Of My Dreams
TTITLE8=Brown Eyed Sweetheart of Mine
TTITLE9=The Drovers Song
TTITLE10=Where The Lazy Murray River Rolls Along
TTITLE11=Bushland Paradise
TTITLE12=Rhythmn In The Saddle
TTITLE13=Overlander Trail
TTITLE14=Over Hilltop And Hollow
TTITLE15=Chain Lightning The Outlaw
TTITLE16=Pioneering Days
TTITLE17=Beaneath The Queensland Moon
TTITLE18=Little Jackeroo
TTITLE19=Murrumbidgee Blues
TTITLE20=Frieght Train Blues
TTITLE21=The Flying Doctor
TTITLE22=There's Another Angel In Heaven
TTITLE23=Too Old To Cut The Mustard
EXTD=
EXTT0=
EXTT1=
EXTT2=
EXTT3=
EXTT4=
EXTT5=
EXTT6=
EXTT7=
EXTT8=
EXTT9=
EXTT10=
EXTT11=
EXTT12=
EXTT13=
EXTT14=
EXTT15=
EXTT16=
EXTT17=
EXTT18=
EXTT19=
EXTT20=
EXTT21=
EXTT22=
EXTT23=
PLAYORDER=
